<svg xmlns="http://www.w3.org/2000/svg" viewBox="0 0 176 64" role="img" aria-label="顺立达组合标：墨绿果钻">
  <g stroke="#f2ede3" stroke-width="1.2" stroke-linejoin="round">
    <path d="M32,14 A22,22 0 0 0 10,36 L32,36 Z" fill="#1f6b45"/>
    <path d="M32,14 A22,22 0 0 1 54,36 L32,36 Z" fill="#2e7d54"/>
    <path d="M10,36 A22,22 0 0 1 32,58 L32,36 Z" fill="#125033"/>
    <path d="M54,36 A22,22 0 0 1 32,58 L32,36 Z" fill="#17663f"/>
  </g>
  <g transform="rotate(-8 32 8)">
    <rect x="30.7" y="5" width="2.6" height="8" rx="1.3" fill="#c9a06a"/>
  </g>
  <ellipse cx="37.5" cy="7.5" rx="4.4" ry="2.2" fill="#c9a06a" transform="rotate(22 37.5 7.5)"/>
  <text x="78" y="33" font-family="'PingFang SC','Microsoft YaHei','Noto Sans SC',sans-serif" font-size="22" font-weight="700" fill="#104a2f" letter-spacing="3">顺立达</text>
  <text x="79" y="49" font-family="'Helvetica Neue',Arial,'PingFang SC',sans-serif" font-size="8" font-weight="500" fill="#7d8f84" letter-spacing="5">SHUNLIDA</text>
</svg>
